<?xml version="1.0" standalone="no"?>
<!DOCTYPE svg PUBLIC "-//W3C//DTD SVG 20010904//EN"
 "http://www.w3.org/TR/2001/REC-SVG-20010904/DTD/svg10.dtd">
<svg version="1.0" xmlns="http://www.w3.org/2000/svg"
 width="300.000000pt" height="283.000000pt" viewBox="0 0 300.000000 283.000000"
 preserveAspectRatio="xMidYMid meet">
<metadata>
Created by potrace 1.10, written by Peter Selinger 2001-2011
</metadata>
<g transform="translate(0.000000,283.000000) scale(0.100000,-0.100000)"
fill="#000000" stroke="none">
<path d="M989 2417 c-62 -23 -108 -57 -138 -100 -56 -82 -56 -88 -55 -519 l2
-398 -175 0 c-141 0 -182 -3 -209 -16 -100 -48 -78 -198 32 -220 l31 -6 12
-100 c30 -243 116 -423 237 -494 24 -14 44 -28 44 -30 0 -2 -14 -33 -32 -69
-26 -53 -30 -69 -22 -92 14 -40 49 -55 118 -49 70 5 103 32 142 113 l25 53
498 0 498 0 11 -37 c28 -92 78 -133 162 -133 49 0 99 24 102 48 3 37 -3 55
-38 109 -19 30 -34 56 -32 57 2 2 19 12 39 24 54 32 123 112 157 178 42 82 67
170 88 306 l18 116 33 7 c46 8 91 50 99 90 9 49 -12 103 -50 126 -30 18 -61
19 -874 19 l-843 0 3 393 c3 390 3 392 27 440 61 124 204 151 304 58 l41 -39
-29 -33 c-42 -50 -65 -108 -65 -166 0 -65 13 -100 43 -114 21 -9 48 1 205 80
205 103 210 108 150 176 -44 51 -102 78 -172 81 -58 3 -61 4 -93 48 -47 65
-109 98 -191 103 -41 2 -81 -2 -103 -10z m1559 -1109 c18 -18 14 -46 -7 -58
-27 -14 -2065 -14 -2092 0 -24 13 -25 46 -1 59 27 16 2084 15 2100 -1z m-133
-195 c-33 -247 -94 -394 -195 -468 -97 -71 -74 -69 -683 -73 -594 -4 -657 0
-740 46 -81 44 -149 140 -190 267 -17 53 -47 214 -47 253 l0 22 931 0 930 0
-6 -47z m-260 -653 l25 -50 -29 0 c-23 0 -34 8 -50 34 -27 43 -26 54 2 59 12
2 23 5 24 6 2 0 14 -21 28 -49z m-1245 31 c0 -4 -10 -23 -23 -42 -16 -25 -31
-35 -54 -37 l-32 -3 25 45 c21 38 31 46 55 46 16 0 29 -4 29 -9z"/>
</g>
</svg>
