<?xml version="1.0" encoding="UTF-8"?>
<!DOCTYPE svg PUBLIC "-//W3C//DTD SVG 1.1//EN" "http://www.w3.org/Graphics/SVG/1.1/DTD/svg11.dtd">
<!-- Creator: CorelDRAW -->
<svg xmlns="http://www.w3.org/2000/svg" xml:space="preserve" width="1.70666in" height="1.70666in" version="1.1" style="shape-rendering:geometricPrecision; text-rendering:geometricPrecision; image-rendering:optimizeQuality; fill-rule:evenodd; clip-rule:evenodd"
viewBox="0 0 1706.66 1706.66"
 xmlns:xlink="http://www.w3.org/1999/xlink"
 xmlns:xodm="http://www.corel.com/coreldraw/odm/2003">
 <defs>
  <style type="text/css">
   <![CDATA[
    .fil0 {fill:black;fill-rule:nonzero}
   ]]>
  </style>
 </defs>
 <g id="Layer_x0020_1">
  <metadata id="CorelCorpID_0Corel-Layer"/>
  <path class="fil0" d="M1686.65 1339.41l-1666.65 0c-11.04,0 -20,-8.97 -20,-20l0 -216.35c0,-69.93 56.91,-126.84 126.83,-126.84l1452.99 -0.01c69.93,0 126.84,56.92 126.84,126.85l0 216.34c0,11.05 -8.97,20.01 -20.01,20.01zm-1646.65 -40l1626.65 0 0 -196.35c0,-47.87 -38.96,-86.83 -86.83,-86.83l-1452.99 0c-47.89,0 -86.83,38.96 -86.83,86.83l0 196.35z"/>
  <path class="fil0" d="M1686.65 1125.74l-1666.65 0c-11.04,0 -20,-8.97 -20,-20 0,-11.03 8.96,-20 20,-20l1666.65 0c11.04,0 20,8.97 20,20 0,11.03 -8.96,20 -20,20z"/>
  <path class="fil0" d="M1604.48 1019.13c-1.54,0 -3.1,-0.2 -4.63,-0.56 -6.58,-1.55 -13.31,-2.35 -20.04,-2.35l-1452.99 0c-6.72,0 -13.47,0.8 -20.06,2.36 -5.91,1.36 -12.22,0.03 -17.03,-3.76 -4.81,-3.79 -7.59,-9.57 -7.59,-15.69l0 -674.65c0,-34.6 28.13,-62.74 62.73,-62.74l1416.87 -0c34.6,0 62.75,28.13 62.75,62.73l0 674.64c0,6.11 -2.8,11.89 -7.61,15.69 -3.57,2.83 -7.94,4.32 -12.4,4.32zm-1459.59 -717.39c-12.54,0 -22.73,10.19 -22.73,22.73l0 651.83c1.55,-0.06 3.12,-0.1 4.68,-0.1l1452.99 0c1.55,0 3.12,0.04 4.67,0.1l0 -651.83c0,-12.54 -10.19,-22.74 -22.74,-22.74l-1416.87 -0z"/>
  <path class="fil0" d="M1499.69 1016.23l-1292.72 0c-11.04,0 -20,-8.97 -20,-20l0 -105.51c0,-69.94 56.9,-126.83 126.83,-126.83l1079.06 0c69.93,0 126.83,56.9 126.83,126.83l0 105.51c-0,11.03 -8.98,20 -20,20zm-1272.72 -40.02l1252.71 0 0 -85.5c0,-47.89 -38.94,-86.83 -86.82,-86.83l-1079.06 0.01c-47.87,0 -86.83,38.96 -86.83,86.83l0 85.49z"/>
  <path class="fil0" d="M251.04 1444.91l-154.91 0c-11.04,0 -20,-8.97 -20,-20l0 -105.5c0,-11.04 8.96,-20 20,-20l219.01 0c7.22,0 13.89,3.9 17.43,10.19 3.54,6.3 3.42,14.02 -0.33,20.19l-64.1 105.5c-3.63,5.96 -10.11,9.61 -17.09,9.61zm-134.91 -40.02l123.67 0 39.79 -65.48 -163.45 0 0 65.48z"/>
  <path class="fil0" d="M1610.52 1444.91l-154.9 0c-6.98,0 -13.47,-3.65 -17.08,-9.61l-64.1 -105.5c-3.76,-6.18 -3.87,-13.9 -0.34,-20.19 3.54,-6.3 10.2,-10.19 17.43,-10.19l219.01 0c11.04,0 20,8.97 20,20l0 105.5c-0.03,11.04 -8.98,20 -20.03,20zm-143.66 -40.02l123.65 0 0 -65.48 -163.45 0 39.8 65.48z"/>
  <path class="fil0" d="M1365.14 803.87l-416.67 0c-11.04,0 -20,-8.96 -20,-20l0 -149.57c0,-69.93 56.92,-126.83 126.84,-126.83l203 0c69.93,0 126.83,56.9 126.83,126.83l0 149.57c-0.02,11.06 -8.98,20 -20.02,20zm-396.67 -39.98l376.65 0 0 -129.59c0,-47.87 -38.94,-86.83 -86.82,-86.83l-203 0c-47.87,0 -86.83,38.96 -86.83,86.83l0 129.59z"/>
  <path class="fil0" d="M758.17 803.87l-416.66 0c-11.04,0 -20,-8.96 -20,-20l0 -149.57c0,-69.93 56.9,-126.83 126.83,-126.83l203 0c69.94,0 126.83,56.9 126.83,126.83l0 149.57c-0,11.06 -8.95,20 -20,20zm-396.66 -39.98l376.68 0 0 -129.59c0,-47.87 -38.96,-86.83 -86.83,-86.83l-203.01 0c-47.89,0 -86.83,38.96 -86.83,86.83l0 129.59z"/>
  <path class="fil0" d="M1475.1 1232.57l-1245.84 0c-11.04,0 -20,-8.97 -20,-20 0,-11.03 8.96,-20 20,-20l1245.84 0c11.04,0 20,8.97 20,20 0,11.03 -8.96,20 -20,20z"/>
 </g>
</svg>
