<?xml version="1.0" encoding="UTF-8"?>
<svg version="1.1" xmlns="http://www.w3.org/2000/svg" width="1024" height="1024">
<path d="M0 0 C337.92 0 675.84 0 1024 0 C1024 337.92 1024 675.84 1024 1024 C686.08 1024 348.16 1024 0 1024 C0 686.08 0 348.16 0 0 Z " fill="#FAFAFA" transform="translate(0,0)"/>
<path d="M0 0 C2.13901512 -0.00417668 4.27802802 -0.00965602 6.41703683 -0.01631981 C12.27456541 -0.03074951 18.13195298 -0.02653735 23.9894892 -0.019153 C30.31482928 -0.01441745 36.64013904 -0.02693471 42.96546936 -0.03717041 C54.63487355 -0.05336425 66.3042215 -0.05580513 77.97363348 -0.05086542 C88.7581372 -0.04630275 99.54262427 -0.04691424 110.32712746 -0.05270576 C111.77548939 -0.05346264 113.22385133 -0.05421862 114.67221326 -0.05497371 C116.85496668 -0.05611895 119.03772009 -0.05726883 121.2204735 -0.05843295 C141.50713522 -0.06913391 161.79379141 -0.0738675 182.08045483 -0.06596279 C182.8447384 -0.06566562 183.60902197 -0.06536844 184.39646564 -0.06506227 C190.60238017 -0.06261351 196.80829464 -0.06000183 203.0142091 -0.05737813 C227.21085917 -0.04727973 251.40743981 -0.05562502 275.6040802 -0.07887268 C302.81223965 -0.10497168 330.02035732 -0.11778593 357.22852975 -0.11068493 C360.13234698 -0.10996891 363.03616422 -0.10929452 365.93998146 -0.10864449 C366.65493236 -0.10847468 367.36988327 -0.10830487 368.10649935 -0.10812991 C378.87794281 -0.10583123 389.64934735 -0.11378343 400.42078209 -0.12693596 C412.67884349 -0.14187739 424.93678579 -0.14227745 437.19485047 -0.12486505 C443.44504814 -0.11636231 449.69507244 -0.11418794 455.945261 -0.1295166 C461.67531121 -0.1433952 467.40504003 -0.13855947 473.13507179 -0.11927737 C475.19960394 -0.11552677 477.26416203 -0.11841193 479.328671 -0.12888902 C505.03305281 -0.2499807 527.25731351 5.75784867 546.52668762 23.7900238 C558.36832673 36.38952782 565.98739904 51.63023892 569.96809387 68.38768005 C570.23391943 69.43658754 570.23391943 69.43658754 570.50511521 70.50668508 C571.15134811 74.5280232 571.10929724 78.47548729 571.10231495 82.54219341 C571.10466718 83.47117542 571.10701941 84.40015744 571.10944292 85.35729042 C571.11612933 88.48752372 571.1156748 91.61771548 571.11526489 94.74795532 C571.11856376 97.00808297 571.12228937 99.26821004 571.12640637 101.52833635 C571.13643226 107.75315502 571.14014413 113.97796406 571.14279568 120.20278966 C571.14629664 126.22277123 571.15444391 132.2427455 571.16233962 138.26272247 C571.18318236 154.39515543 571.19365455 170.52759022 571.20246923 186.6600335 C571.206677 194.29503559 571.2118989 201.93003689 571.21715375 209.56503832 C571.23504607 235.70969153 571.25004021 261.85434498 571.25747395 287.99900341 C571.2579487 289.64039984 571.25842459 291.28179627 571.25890161 292.9231927 C571.25925617 294.14415423 571.25925617 294.14415423 571.2596179 295.38978164 C571.26081908 299.51367422 571.26203453 303.63756679 571.26325989 307.76145935 C571.26350004 308.57985474 571.26374019 309.39825012 571.26398761 310.24144537 C571.27187537 336.75823073 571.29529529 363.27497128 571.32781583 389.79173709 C571.36214873 417.8375975 571.38182841 445.88343171 571.38511819 473.92931348 C571.38553571 477.01103518 571.38601527 480.09275685 571.38654137 483.17447853 C571.38666456 483.93326518 571.38678775 484.69205183 571.38691467 485.47383201 C571.38924268 497.66292776 571.4048806 509.85197132 571.42538321 522.0410485 C571.44568511 534.30591737 571.45109799 546.57072386 571.44161258 558.83560642 C571.43686989 565.47471846 571.43893643 572.11369749 571.45837402 578.75279617 C571.47604039 584.8396756 571.47497947 590.92626365 571.45947673 597.01314632 C571.45710594 599.2064421 571.46139648 601.39975824 571.47330538 603.59302296 C571.6164248 631.71001855 565.16796221 654.98006992 545.45637512 675.9853363 C532.20279574 688.78117825 516.91003403 696.51956384 498.96809387 700.38768005 C498.25228976 700.564172 497.53648564 700.74066394 496.79899049 700.92250413 C493.01876963 701.54367402 489.28589234 701.52901045 485.46671677 701.52190113 C484.1791619 701.52542948 484.1791619 701.52542948 482.86559582 701.5290291 C479.97557519 701.53571131 477.0855996 701.53526111 474.1955719 701.53485107 C472.10797312 701.5381502 470.02037497 701.54187587 467.93277764 701.54599255 C462.18489438 701.55601545 456.43702155 701.55972983 450.68913078 701.56238186 C444.49387544 701.56628415 438.29862836 701.57586266 432.1033783 701.58459473 C417.84220852 701.60342852 403.58104062 701.61361651 389.3198617 701.62205541 C382.26918994 701.62626358 375.21851903 701.63148541 368.16784798 701.63673994 C344.02300673 701.65463186 319.87816522 701.66962595 295.73331833 701.67706013 C294.21756646 701.67753488 292.70181458 701.67801077 291.18606271 701.67848779 C290.4343981 701.67872417 289.68273349 701.67896054 288.90829116 701.67920408 C285.1001004 701.68040526 281.29190963 701.68162071 277.48371887 701.68284607 C276.72797612 701.68308622 275.97223337 701.68332637 275.19358932 701.6835738 C250.7068884 701.69146152 226.220236 701.71488159 201.73355625 701.74740201 C175.83336503 701.78173673 149.93320218 701.80141475 124.03298783 701.80470437 C121.1869165 701.80512189 118.34084518 701.80560145 115.49477386 701.80612755 C114.79401211 701.80625074 114.09325036 701.80637393 113.37125341 701.80650086 C102.11551067 701.80882862 90.85982445 701.82446511 79.60410183 701.84496939 C68.27797863 701.86527365 56.95194234 701.8703509 45.62579736 701.86119876 C39.49513061 701.85665957 33.36464657 701.85851841 27.23400497 701.87796021 C21.61285971 701.89563171 15.99202991 701.89456159 10.37088111 701.87906291 C8.34583859 701.87669289 6.320774 701.88097862 4.29576513 701.89289156 C-11.06908315 701.97762493 -25.95998904 700.71267201 -39.90690613 693.63768005 C-40.60759216 693.29406433 -41.3082782 692.95044861 -42.03019714 692.59642029 C-48.19018087 689.4856108 -53.71040169 685.78734908 -59.03190613 681.38768005 C-59.88139832 680.70060974 -60.7308905 680.01353943 -61.60612488 679.3056488 C-77.91179286 665.44707954 -88.13248604 645.51897622 -91.03190613 624.38768005 C-91.17445785 621.27734131 -91.17145537 618.17087618 -91.1661272 615.05768013 C-91.16847944 614.12187996 -91.17083167 613.18607979 -91.17325518 612.22192204 C-91.17993178 609.07453652 -91.17948735 605.92719242 -91.17907715 602.77980042 C-91.18237661 600.50500993 -91.18610235 598.23022002 -91.19021863 595.95543087 C-91.20023746 589.69480559 -91.20395524 583.43418991 -91.20660794 577.17355776 C-91.21011061 571.11766907 -91.21825798 565.06178763 -91.22615187 559.00590351 C-91.24698603 542.78045976 -91.25746481 526.55501421 -91.26628148 510.3295602 C-91.27048983 502.65113271 -91.27571159 494.97270599 -91.28096601 487.29427915 C-91.29885613 461.00190346 -91.31385104 434.70952755 -91.3212862 408.41714668 C-91.32176096 406.76678981 -91.32223684 405.11643294 -91.32271386 403.46607607 C-91.32295024 402.64766 -91.32318662 401.82924393 -91.32343015 400.98602738 C-91.32463133 396.83963816 -91.32584679 392.69324895 -91.32707214 388.54685974 C-91.32731229 387.72400119 -91.32755244 386.90114265 -91.32779987 386.05334899 C-91.33569003 359.38376183 -91.35911605 332.71421919 -91.39162809 306.04465146 C-91.4259512 277.83786542 -91.44563968 249.63110543 -91.44893044 221.42429817 C-91.44934797 218.32577696 -91.44982753 215.22725578 -91.45035362 212.12873459 C-91.45047681 211.36581014 -91.45060001 210.6028857 -91.45072693 209.81684233 C-91.45305595 197.55580956 -91.46869928 185.29482862 -91.48919547 173.0338143 C-91.50948438 160.70076951 -91.51491631 148.36778675 -91.50542483 136.03472836 C-91.50067829 129.35735904 -91.50276971 122.68017784 -91.52218628 116.00282097 C-91.53982649 109.88339571 -91.53881284 103.76426049 -91.52328899 97.64483212 C-91.52091426 95.43747003 -91.52522932 93.23008782 -91.53711764 91.02275647 C-91.61469491 75.66047658 -90.79789864 60.98645318 -83.34440613 47.13768005 C-83.00409363 46.48348083 -82.66378113 45.82928162 -82.31315613 45.15525818 C-72.96388691 27.73162009 -59.01018326 14.53683225 -40.96940613 6.51268005 C-40.35774597 6.23867371 -39.74608582 5.96466736 -39.1158905 5.68235779 C-26.18384499 0.23826391 -13.79970116 -0.04388569 0 0 Z " fill="#FAFAFA" transform="translate(272.0319061279297,160.61231994628906)"/>
<path d="M0 0 C2.13901512 -0.00417668 4.27802802 -0.00965602 6.41703683 -0.01631981 C12.27456541 -0.03074951 18.13195298 -0.02653735 23.9894892 -0.019153 C30.31482928 -0.01441745 36.64013904 -0.02693471 42.96546936 -0.03717041 C54.63487355 -0.05336425 66.3042215 -0.05580513 77.97363348 -0.05086542 C88.7581372 -0.04630275 99.54262427 -0.04691424 110.32712746 -0.05270576 C111.77548939 -0.05346264 113.22385133 -0.05421862 114.67221326 -0.05497371 C116.85496668 -0.05611895 119.03772009 -0.05726883 121.2204735 -0.05843295 C141.50713522 -0.06913391 161.79379141 -0.0738675 182.08045483 -0.06596279 C182.8447384 -0.06566562 183.60902197 -0.06536844 184.39646564 -0.06506227 C190.60238017 -0.06261351 196.80829464 -0.06000183 203.0142091 -0.05737813 C227.21085917 -0.04727973 251.40743981 -0.05562502 275.6040802 -0.07887268 C302.81223965 -0.10497168 330.02035732 -0.11778593 357.22852975 -0.11068493 C360.13234698 -0.10996891 363.03616422 -0.10929452 365.93998146 -0.10864449 C366.65493236 -0.10847468 367.36988327 -0.10830487 368.10649935 -0.10812991 C378.87794281 -0.10583123 389.64934735 -0.11378343 400.42078209 -0.12693596 C412.67884349 -0.14187739 424.93678579 -0.14227745 437.19485047 -0.12486505 C443.44504814 -0.11636231 449.69507244 -0.11418794 455.945261 -0.1295166 C461.67531121 -0.1433952 467.40504003 -0.13855947 473.13507179 -0.11927737 C475.19960394 -0.11552677 477.26416203 -0.11841193 479.328671 -0.12888902 C505.03305281 -0.2499807 527.25731351 5.75784867 546.52668762 23.7900238 C558.36832673 36.38952782 565.98739904 51.63023892 569.96809387 68.38768005 C570.23391943 69.43658754 570.23391943 69.43658754 570.50511521 70.50668508 C571.15134811 74.5280232 571.10929724 78.47548729 571.10231495 82.54219341 C571.10466718 83.47117542 571.10701941 84.40015744 571.10944292 85.35729042 C571.11612933 88.48752372 571.1156748 91.61771548 571.11526489 94.74795532 C571.11856376 97.00808297 571.12228937 99.26821004 571.12640637 101.52833635 C571.13643226 107.75315502 571.14014413 113.97796406 571.14279568 120.20278966 C571.14629664 126.22277123 571.15444391 132.2427455 571.16233962 138.26272247 C571.18318236 154.39515543 571.19365455 170.52759022 571.20246923 186.6600335 C571.206677 194.29503559 571.2118989 201.93003689 571.21715375 209.56503832 C571.23504607 235.70969153 571.25004021 261.85434498 571.25747395 287.99900341 C571.2579487 289.64039984 571.25842459 291.28179627 571.25890161 292.9231927 C571.25925617 294.14415423 571.25925617 294.14415423 571.2596179 295.38978164 C571.26081908 299.51367422 571.26203453 303.63756679 571.26325989 307.76145935 C571.26350004 308.57985474 571.26374019 309.39825012 571.26398761 310.24144537 C571.27187537 336.75823073 571.29529529 363.27497128 571.32781583 389.79173709 C571.36214873 417.8375975 571.38182841 445.88343171 571.38511819 473.92931348 C571.38553571 477.01103518 571.38601527 480.09275685 571.38654137 483.17447853 C571.38666456 483.93326518 571.38678775 484.69205183 571.38691467 485.47383201 C571.38924268 497.66292776 571.4048806 509.85197132 571.42538321 522.0410485 C571.44568511 534.30591737 571.45109799 546.57072386 571.44161258 558.83560642 C571.43686989 565.47471846 571.43893643 572.11369749 571.45837402 578.75279617 C571.47604039 584.8396756 571.47497947 590.92626365 571.45947673 597.01314632 C571.45710594 599.2064421 571.46139648 601.39975824 571.47330538 603.59302296 C571.6164248 631.71001855 565.16796221 654.98006992 545.45637512 675.9853363 C532.20279574 688.78117825 516.91003403 696.51956384 498.96809387 700.38768005 C498.25228976 700.564172 497.53648564 700.74066394 496.79899049 700.92250413 C493.01876963 701.54367402 489.28589234 701.52901045 485.46671677 701.52190113 C484.1791619 701.52542948 484.1791619 701.52542948 482.86559582 701.5290291 C479.97557519 701.53571131 477.0855996 701.53526111 474.1955719 701.53485107 C472.10797312 701.5381502 470.02037497 701.54187587 467.93277764 701.54599255 C462.18489438 701.55601545 456.43702155 701.55972983 450.68913078 701.56238186 C444.49387544 701.56628415 438.29862836 701.57586266 432.1033783 701.58459473 C417.84220852 701.60342852 403.58104062 701.61361651 389.3198617 701.62205541 C382.26918994 701.62626358 375.21851903 701.63148541 368.16784798 701.63673994 C344.02300673 701.65463186 319.87816522 701.66962595 295.73331833 701.67706013 C294.21756646 701.67753488 292.70181458 701.67801077 291.18606271 701.67848779 C290.4343981 701.67872417 289.68273349 701.67896054 288.90829116 701.67920408 C285.1001004 701.68040526 281.29190963 701.68162071 277.48371887 701.68284607 C276.72797612 701.68308622 275.97223337 701.68332637 275.19358932 701.6835738 C250.7068884 701.69146152 226.220236 701.71488159 201.73355625 701.74740201 C175.83336503 701.78173673 149.93320218 701.80141475 124.03298783 701.80470437 C121.1869165 701.80512189 118.34084518 701.80560145 115.49477386 701.80612755 C114.79401211 701.80625074 114.09325036 701.80637393 113.37125341 701.80650086 C102.11551067 701.80882862 90.85982445 701.82446511 79.60410183 701.84496939 C68.27797863 701.86527365 56.95194234 701.8703509 45.62579736 701.86119876 C39.49513061 701.85665957 33.36464657 701.85851841 27.23400497 701.87796021 C21.61285971 701.89563171 15.99202991 701.89456159 10.37088111 701.87906291 C8.34583859 701.87669289 6.320774 701.88097862 4.29576513 701.89289156 C-11.06908315 701.97762493 -25.95998904 700.71267201 -39.90690613 693.63768005 C-40.60759216 693.29406433 -41.3082782 692.95044861 -42.03019714 692.59642029 C-48.19018087 689.4856108 -53.71040169 685.78734908 -59.03190613 681.38768005 C-59.88139832 680.70060974 -60.7308905 680.01353943 -61.60612488 679.3056488 C-77.91179286 665.44707954 -88.13248604 645.51897622 -91.03190613 624.38768005 C-91.17445785 621.27734131 -91.17145537 618.17087618 -91.1661272 615.05768013 C-91.16847944 614.12187996 -91.17083167 613.18607979 -91.17325518 612.22192204 C-91.17993178 609.07453652 -91.17948735 605.92719242 -91.17907715 602.77980042 C-91.18237661 600.50500993 -91.18610235 598.23022002 -91.19021863 595.95543087 C-91.20023746 589.69480559 -91.20395524 583.43418991 -91.20660794 577.17355776 C-91.21011061 571.11766907 -91.21825798 565.06178763 -91.22615187 559.00590351 C-91.24698603 542.78045976 -91.25746481 526.55501421 -91.26628148 510.3295602 C-91.27048983 502.65113271 -91.27571159 494.97270599 -91.28096601 487.29427915 C-91.29885613 461.00190346 -91.31385104 434.70952755 -91.3212862 408.41714668 C-91.32176096 406.76678981 -91.32223684 405.11643294 -91.32271386 403.46607607 C-91.32295024 402.64766 -91.32318662 401.82924393 -91.32343015 400.98602738 C-91.32463133 396.83963816 -91.32584679 392.69324895 -91.32707214 388.54685974 C-91.32731229 387.72400119 -91.32755244 386.90114265 -91.32779987 386.05334899 C-91.33569003 359.38376183 -91.35911605 332.71421919 -91.39162809 306.04465146 C-91.4259512 277.83786542 -91.44563968 249.63110543 -91.44893044 221.42429817 C-91.44934797 218.32577696 -91.44982753 215.22725578 -91.45035362 212.12873459 C-91.45047681 211.36581014 -91.45060001 210.6028857 -91.45072693 209.81684233 C-91.45305595 197.55580956 -91.46869928 185.29482862 -91.48919547 173.0338143 C-91.50948438 160.70076951 -91.51491631 148.36778675 -91.50542483 136.03472836 C-91.50067829 129.35735904 -91.50276971 122.68017784 -91.52218628 116.00282097 C-91.53982649 109.88339571 -91.53881284 103.76426049 -91.52328899 97.64483212 C-91.52091426 95.43747003 -91.52522932 93.23008782 -91.53711764 91.02275647 C-91.61469491 75.66047658 -90.79789864 60.98645318 -83.34440613 47.13768005 C-83.00409363 46.48348083 -82.66378113 45.82928162 -82.31315613 45.15525818 C-72.96388691 27.73162009 -59.01018326 14.53683225 -40.96940613 6.51268005 C-40.35774597 6.23867371 -39.74608582 5.96466736 -39.1158905 5.68235779 C-26.18384499 0.23826391 -13.79970116 -0.04388569 0 0 Z M-52.03190613 43.38768005 C-62.67392141 56.80444129 -66.80267448 70.47038195 -66.67114258 87.40168762 C-66.67747012 88.97344711 -66.68598262 90.54519904 -66.69646281 92.11693633 C-66.71880387 96.40230717 -66.71046219 100.68713427 -66.69677722 104.97252083 C-66.68745582 109.61588182 -66.70710959 114.25913551 -66.72309875 118.90246582 C-66.74693406 126.9685048 -66.75254373 135.03439098 -66.74575233 143.10046005 C-66.73583874 154.91914499 -66.75389714 166.73766586 -66.77811965 178.5563242 C-66.81708506 197.94217035 -66.83367132 217.32796933 -66.83634949 236.71385193 C-66.83894711 255.18034931 -66.85166375 273.64678839 -66.87931824 292.11326599 C-66.88098748 293.23317188 -66.88265672 294.35307776 -66.88437654 295.50692019 C-66.89283336 301.14441267 -66.90148506 306.78190483 -66.91022706 312.41939688 C-66.95484673 341.310246 -66.99248284 370.20108006 -67.00068665 399.09196472 C-67.0009965 400.17199602 -67.00130636 401.25202732 -67.00162561 402.36478683 C-67.00430178 412.03589077 -67.0064146 421.70699481 -67.00815415 431.37809896 C-67.01326858 457.94930061 -67.04790525 484.52017407 -67.12457198 511.09126621 C-67.14201675 517.20965942 -67.15677071 523.32805394 -67.16945553 529.44645882 C-67.17119345 530.2840065 -67.17293138 531.12155418 -67.17472197 531.98448209 C-67.18316782 536.10895404 -67.19123312 540.23342653 -67.19901079 544.35789979 C-67.2156355 552.89294253 -67.24119254 561.4278607 -67.27911688 569.96283576 C-67.30349196 575.61998949 -67.31709705 581.27710286 -67.32202928 586.93430677 C-67.32517017 590.12668458 -67.3347675 593.31880184 -67.35478759 596.51112413 C-67.69995279 619.88284869 -67.69995279 619.88284869 -60.28190613 641.76268005 C-59.93120056 642.42912537 -59.580495 643.09557068 -59.21916199 643.7822113 C-56.34542602 649.10552993 -53.17224068 653.95288205 -49.03190613 658.38768005 C-48.10378113 659.3950824 -48.10378113 659.3950824 -47.15690613 660.4228363 C-42.65561135 664.84740446 -37.73849626 667.85841607 -32.15690613 670.70018005 C-31.52147888 671.0257489 -30.88605164 671.35131775 -30.23136902 671.68675232 C-17.91537919 677.64420396 -6.18582546 677.81748624 7.21658325 677.76863098 C9.28262666 677.77209043 11.34866822 677.77685692 13.41470593 677.78281271 C19.07506347 677.79531309 24.73526888 677.78915659 30.3956269 677.77985406 C36.50687993 677.77305988 42.618107 677.78354673 48.72935486 677.79179382 C60.00424285 677.80435974 71.27906901 677.8032751 82.55395545 677.79505942 C92.97257203 677.78750523 103.3911709 677.78554614 113.80978966 677.78912735 C114.50156151 677.78935651 115.19333337 677.78958566 115.906068 677.78982176 C118.71440679 677.79075582 121.52274557 677.79171102 124.33108434 677.79270105 C150.66528272 677.80187393 176.99945033 677.79356475 203.33364396 677.77741036 C226.711078 677.76317875 250.088463 677.76444393 273.46589661 677.77879333 C299.74817809 677.79487196 326.03043238 677.8012186 352.31271809 677.79195654 C355.11679565 677.79099444 357.92087322 677.79005592 360.72495079 677.78912735 C361.76055524 677.7887715 361.76055524 677.7887715 362.81708099 677.78840846 C373.22503934 677.78500166 383.63297799 677.7889765 394.04093361 677.79656601 C405.88223747 677.80515782 417.7234835 677.80268201 429.56478516 677.78672378 C435.60394902 677.7788526 441.64301352 677.77572982 447.68217659 677.78567123 C453.21592099 677.79464267 458.7494744 677.78964486 464.2832016 677.77373858 C466.27974203 677.77040109 468.27629876 677.77206145 470.27282862 677.77936594 C490.85734946 677.8488699 509.63205951 675.03518212 525.96809387 661.38768005 C526.68739075 660.79342224 527.40668762 660.19916443 528.14778137 659.5868988 C534.26595052 654.02817314 538.7162489 646.95188202 541.96809387 639.38768005 C542.59545252 637.92837806 542.59545252 637.92837806 543.23548508 636.43959522 C547.94873716 623.66510476 547.62573657 611.13498662 547.4832617 597.65541622 C547.45198885 594.14299574 547.4508674 590.63053653 547.44589996 587.11799812 C547.43328085 580.95511797 547.40253496 574.79254246 547.35977936 568.6298008 C547.29631279 559.43818961 547.26237628 550.24663498 547.23574618 541.05485117 C547.22291821 536.64078212 547.20903661 532.22671658 547.19487381 527.81265163 C547.19200982 526.92000305 547.18914584 526.02735447 547.18619506 525.10765593 C547.16473265 518.61329114 547.13784451 512.11896086 547.10853195 505.62462711 C546.98176217 477.39143937 546.93158739 449.15873549 546.91926575 420.92527771 C546.91574982 413.46131261 546.91209563 405.99734758 546.90832287 398.53338261 C546.90723489 396.37995358 546.90616693 394.22652454 546.90511888 392.07309549 C546.89093203 363.70467498 546.84147557 335.33631793 546.79007998 306.96794427 C546.78010945 301.45364094 546.77029884 295.93933734 546.76057434 290.42503357 C546.75766507 288.78335075 546.75766507 288.78335075 546.75469702 287.10850261 C546.72299946 269.00238649 546.70647402 250.89628366 546.69489965 232.79014478 C546.68249472 213.86653016 546.6551054 194.9429811 546.61348081 176.01940793 C546.58858908 164.50012217 546.57495829 152.98094482 546.5766643 141.46163174 C546.57669402 133.66368296 546.56209243 125.86584741 546.53592959 118.06794284 C546.5213295 113.59126006 546.51304546 109.11480973 546.52229118 104.6381073 C546.53061773 100.53844614 546.52031809 96.43925175 546.49575725 92.33965959 C546.49011051 90.86688396 546.49103122 89.39406352 546.49958143 87.92130188 C546.59420414 70.08753515 541.64299485 54.24316565 529.34309387 41.01268005 C513.16582609 25.95023164 495.28066475 23.77836362 474.14909363 23.64775085 C471.91860917 23.62033104 469.68814192 23.59147724 467.45769346 23.56127095 C460.62794211 23.47586892 453.79822901 23.42935701 446.96809387 23.38768005 C444.94035948 23.37293822 442.9126267 23.35797258 440.8848958 23.34275723 C428.01720271 23.25081254 415.14984145 23.22953277 402.28186011 23.22763729 C396.6723647 23.22573228 391.0628758 23.2181625 385.4533844 23.21150208 C373.30303553 23.19815469 361.15269004 23.19193704 349.00233507 23.18749142 C341.39602498 23.18469854 333.7897161 23.18045724 326.18340683 23.17598724 C305.04604224 23.16384503 283.90867865 23.15348826 262.77131081 23.15011215 C261.41650109 23.14989054 260.06169138 23.14966876 258.70688166 23.1494468 C257.3493509 23.14922618 255.99182014 23.1490057 254.63428938 23.14878535 C251.91206145 23.14834287 249.18983352 23.14789573 246.46760559 23.14744568 C245.79270169 23.14733629 245.11779779 23.1472269 244.42244226 23.14711419 C222.43262105 23.14346607 200.44283243 23.12745352 178.45302373 23.10425531 C155.08763447 23.07965145 131.72226911 23.06594656 108.35686433 23.06474423 C95.66092714 23.06382926 82.96503309 23.05811805 70.26910782 23.03992462 C59.4940583 23.02453401 48.71906541 23.01939859 37.94400699 23.02766272 C32.45365769 23.03156749 26.96342255 23.03064643 21.47308731 23.01660538 C16.44493822 23.00386292 11.41698908 23.00506683 6.38884024 23.01719609 C4.57451897 23.01915193 2.76018349 23.01607988 0.94588216 23.00735173 C-19.70907999 22.91430013 -37.76357058 27.3165656 -52.03190613 43.38768005 Z " fill="#040706" transform="translate(272.0319061279297,160.61231994628906)"/>
<path d="M0 0 C0.89976562 -0.020625 1.79953125 -0.04125 2.7265625 -0.0625 C14.04284167 -0.12753609 24.42334136 3.30936383 32.84765625 11.06640625 C37.33106627 15.94396221 40.65102078 21.48698952 43.875 27.25 C44.2875 26.53714844 44.7 25.82429688 45.125 25.08984375 C52.76445717 12.41994045 62.27891765 6.16200106 76.0703125 1.0703125 C81.30408348 -0.05811861 86.3486631 -0.07902891 91.6875 -0.0625 C92.71681641 -0.07861328 93.74613281 -0.09472656 94.80664062 -0.11132812 C107.46801985 -0.11933659 118.21327977 3.66681641 127.5625 12.3125 C144.34530434 30.00327456 143.1956581 58.05440685 143.17578125 80.84765625 C143.17968091 82.74385164 143.18401812 84.64004617 143.18876648 86.53623962 C143.19614333 90.46307244 143.1959948 94.38981512 143.19067383 98.31665039 C143.18480708 103.35495503 143.20202204 108.3929006 143.2250185 113.43114567 C143.23969515 117.32492736 143.24063731 121.21862041 143.23750877 125.11242485 C143.23802234 126.97243413 143.24326665 128.83244832 143.25332069 130.6924305 C143.26558637 133.27184507 143.25896022 135.85052978 143.24731445 138.42993164 C143.25495819 139.19705475 143.26260193 139.96417786 143.27047729 140.75454712 C143.2492218 142.87245178 143.2492218 142.87245178 142.875 146.25 C139.2248333 148.68344446 137.43657776 148.50764254 133.08984375 148.515625 C132.43295059 148.51753845 131.77605743 148.5194519 131.09925842 148.52142334 C129.71322241 148.52278227 128.32717355 148.51910619 126.94116211 148.51074219 C124.81660513 148.50002072 122.69289039 148.51065541 120.56835938 148.5234375 C119.2213523 148.52211619 117.87434574 148.51955438 116.52734375 148.515625 C115.30007568 148.51336914 114.07280762 148.51111328 112.80834961 148.50878906 C109.875 148.25 109.875 148.25 107.875 146.25 C107.66760971 143.38647843 107.5845243 140.61760962 107.58789062 137.75219727 C107.58105759 136.87224594 107.57422455 135.99229462 107.56718445 135.0856781 C107.55356944 133.16938913 107.54453355 131.25306353 107.53947449 129.33673286 C107.53119546 126.29637632 107.5106944 123.25632163 107.48693848 120.21604919 C107.43862197 113.74824434 107.40580356 107.2804088 107.375 100.8125 C107.33925499 93.34707855 107.29706906 85.88180162 107.23905945 78.41651726 C107.21912458 75.43493028 107.21069461 72.45345645 107.20275879 69.47181702 C107.4462458 51.55398192 107.4462458 51.55398192 100.875 35.25 C95.01053229 29.53590326 89.16976361 28.75536933 81.18188477 28.74804688 C72.30301226 29.01414091 65.07539966 32.57979634 58.875 38.9375 C52.32235485 47.2481719 50.73530285 57.49745576 50.70141602 67.7722168 C50.6913855 69.04133408 50.6913855 69.04133408 50.68115234 70.33609009 C50.66713836 72.16723399 50.65523279 73.99839498 50.64520454 75.82956505 C50.62876094 78.72480434 50.60552537 81.61991558 50.58030701 84.51509094 C50.50959718 92.74445205 50.44923851 100.97386285 50.39819336 109.20336914 C50.36647364 114.2407055 50.32522704 119.27788986 50.27799797 124.31510353 C50.26194823 126.23648168 50.24964047 128.15789475 50.24109077 130.07932091 C50.22899042 132.758361 50.20486693 135.43704032 50.17797852 138.1159668 C50.17738937 138.91443527 50.17680023 139.71290375 50.17619324 140.53556824 C50.10290692 146.02209308 50.10290692 146.02209308 47.875 148.25 C44.92578125 148.50878906 44.92578125 148.50878906 41.1875 148.515625 C40.52919189 148.51753845 39.87088379 148.5194519 39.19262695 148.52142334 C37.8006146 148.5227845 36.40858953 148.51909283 35.01660156 148.51074219 C32.88317411 148.500041 30.75058869 148.51063906 28.6171875 148.5234375 C27.26562314 148.52211589 25.9140593 148.51955347 24.5625 148.515625 C23.32886719 148.51336914 22.09523438 148.51111328 20.82421875 148.50878906 C17.875 148.25 17.875 148.25 15.875 146.25 C15.66769138 143.44700083 15.58451998 140.74068931 15.58789062 137.93579102 C15.58105759 137.07534683 15.57422455 136.21490265 15.56718445 135.3283844 C15.55357004 133.45465786 15.54453376 131.58089388 15.53947449 129.70712471 C15.53119449 126.7339752 15.51069244 123.76113421 15.48693848 120.78807068 C15.43862364 114.46292633 15.40580576 108.1377506 15.375 101.8125 C15.33925079 94.5122885 15.2970556 87.21222468 15.23905945 79.91215324 C15.21913036 76.99704325 15.21069572 74.08204897 15.20275879 71.16688538 C15.36875873 50.86142329 15.36875873 50.86142329 6.25 33.375 C-1.50931893 28.4895029 -8.00718424 27.64066775 -17.0078125 29.3984375 C-25.37493375 31.68419243 -30.80773298 35.71128602 -35.125 43.25 C-41.38410443 55.87149442 -41.43853469 68.57673159 -41.50390625 82.34765625 C-41.52010216 84.19185753 -41.53728431 86.03605039 -41.55540466 87.88023376 C-41.60083092 92.70478435 -41.63578501 97.52934644 -41.66760254 102.35400391 C-41.7197471 110.10722891 -41.78447202 117.86033158 -41.85581779 125.61340141 C-41.87868766 128.3217697 -41.89492474 131.03012204 -41.91053772 133.73854065 C-41.92393458 135.38437078 -41.93754851 137.03019916 -41.95141602 138.67602539 C-41.95533607 139.81123375 -41.95533607 139.81123375 -41.95933533 140.96937561 C-42.01134826 146.13634826 -42.01134826 146.13634826 -43.125 147.25 C-45.40447792 147.3502093 -47.68707135 147.38081303 -49.96875 147.3828125 C-50.99518616 147.38424759 -50.99518616 147.38424759 -52.0423584 147.38571167 C-53.49161877 147.3863933 -54.94088218 147.38454023 -56.39013672 147.38037109 C-58.61562928 147.37502252 -60.84092001 147.3803166 -63.06640625 147.38671875 C-64.47135461 147.38605797 -65.87630285 147.3847768 -67.28125 147.3828125 C-68.56837891 147.38168457 -69.85550781 147.38055664 -71.18164062 147.37939453 C-74.125 147.25 -74.125 147.25 -75.125 146.25 C-75.22580266 144.43234677 -75.25576875 142.6107423 -75.25871277 140.79029846 C-75.26297775 139.6054184 -75.26724274 138.42053833 -75.27163696 137.19975281 C-75.27118378 135.88803604 -75.27073059 134.57631927 -75.27026367 133.22485352 C-75.27325361 131.83880523 -75.27665575 130.45275777 -75.28044128 129.06671143 C-75.28930237 125.29195892 -75.29162028 121.51722906 -75.29225707 117.74246716 C-75.29320443 114.59617749 -75.29688073 111.44989313 -75.30042917 108.3036055 C-75.30858175 100.88330914 -75.31101267 93.46302493 -75.31030273 86.04272461 C-75.30970173 78.37705172 -75.32025625 70.71144916 -75.3360464 63.04579407 C-75.34910268 56.47424377 -75.35448744 49.90271651 -75.35384732 43.33115333 C-75.35359177 39.40191711 -75.35647433 35.47274333 -75.36702538 31.54351997 C-75.3766743 27.84914903 -75.37680775 24.15490066 -75.36950874 20.46052551 C-75.36795681 18.4522696 -75.37633197 16.44401378 -75.38494873 14.43577576 C-75.38075424 13.24807587 -75.37655975 12.06037598 -75.37223816 10.83668518 C-75.37278293 9.8000451 -75.37332769 8.76340502 -75.37388897 7.6953516 C-75.125 5.25 -75.125 5.25 -73.125 3.25 C-68.49644189 2.78767843 -63.83645203 2.92602111 -59.1875 2.9375 C-57.88619141 2.92138672 -56.58488281 2.90527344 -55.24414062 2.88867188 C-53.37725586 2.88770508 -53.37725586 2.88770508 -51.47265625 2.88671875 C-50.32804932 2.88373779 -49.18344238 2.88075684 -48.00415039 2.87768555 C-45.125 3.25 -45.125 3.25 -43.26025391 4.53564453 C-41.29263224 7.50696482 -41.54323778 10.97836405 -41.4375 14.4375 C-41.40333984 15.18708984 -41.36917969 15.93667969 -41.33398438 16.70898438 C-41.25165706 18.55546838 -41.18664719 20.40270994 -41.125 22.25 C-40.52171875 21.32960938 -39.9184375 20.40921875 -39.296875 19.4609375 C-30.2979317 6.15674435 -15.6869307 0.08763648 0 0 Z " fill="#040606" transform="translate(428.125,480.75)"/>
<path d="M0 0 C4.92286834 2.6583489 8.48284609 5.96569218 11 11 C11.10338543 12.40609612 11.14644166 13.81687249 11.15821838 15.22671509 C11.1680072 16.11295059 11.17779602 16.9991861 11.18788147 17.91227722 C11.19651466 19.37423271 11.19651466 19.37423271 11.20532227 20.86572266 C11.21522186 21.89013962 11.22512146 22.91455658 11.23532104 23.97001648 C11.26699755 27.36800803 11.29171778 30.76601357 11.31640625 34.1640625 C11.33697047 36.51533377 11.35796679 38.86660129 11.37937927 41.21786499 C11.43465493 47.41565934 11.48403996 53.61348735 11.53222656 59.81134033 C11.58240152 66.13206998 11.63810846 72.45275055 11.69335938 78.7734375 C11.80100813 91.18224978 11.90243815 103.59110461 12 116 C12.4152317 115.5838465 12.83046341 115.167693 13.25827789 114.73892879 C23.38925661 104.58580944 33.52304554 94.43550138 43.65991974 84.28826809 C48.56208308 79.38096127 53.46331143 74.47272756 58.36230469 69.56225586 C63.09325613 64.82022504 67.82685632 60.0808531 72.5620575 55.34306526 C74.36495782 53.53832238 76.16698019 51.732702 77.96809387 49.92617607 C80.49786953 47.38910382 83.03079599 44.8552167 85.56445312 42.32202148 C86.30245148 41.58042786 87.04044983 40.83883423 87.80081177 40.07476807 C91.80372775 36.07970229 95.89275006 32.26962746 100.21697235 28.62320042 C102.67457186 26.38589548 104.72209277 23.89231227 106.7734375 21.28515625 C107.17820312 20.86105469 107.58296875 20.43695312 108 20 C108.66 20 109.32 20 110 20 C110 19.34 110 18.68 110 18 C113.68387665 15.4673348 116.43609088 13.58084179 121 13.875 C125.74051843 14.77883425 128.86368368 17.44781853 132 21 C134.25381261 24.56853663 134.25826047 27.66176714 133.6768055 31.82028008 C132.33842845 36.13065747 129.02739601 38.88816617 125.85327148 41.95727539 C125.1051973 42.70797806 124.35712311 43.45868073 123.58638 44.23213196 C121.11433507 46.70439814 118.61831417 49.15084362 116.12109375 51.59765625 C114.39145333 53.31676914 112.66328915 55.03736848 110.9365387 56.75938416 C106.38642996 61.28845362 101.8152734 65.79570276 97.23980713 70.2991333 C93.52142169 73.96584863 89.81783571 77.64730773 86.11505032 81.32976627 C78.44294515 88.95941941 70.76092273 96.57916075 63.05249023 104.17211914 C62.35346588 104.86374146 61.65444153 105.55536377 60.93423462 106.26794434 C57.69055749 109.45564483 54.40756469 112.55120936 50.96546936 115.5243988 C46.95875523 118.98732419 43.2173006 122.66834864 39.5 126.4375 C38.86835938 127.07365234 38.23671875 127.70980469 37.5859375 128.36523438 C36.05494226 129.90782806 34.52712333 131.45357314 33 133 C34.15400803 133.00586624 35.30801605 133.01173248 36.49699402 133.01777649 C47.37080487 133.0749818 58.24441531 133.14773208 69.11802197 133.23571491 C74.70830533 133.28044823 80.29851532 133.31969796 85.88891602 133.34643555 C91.28365849 133.37243877 96.67811903 133.41282036 102.07268715 133.46318626 C104.13113207 133.4798751 106.18962577 133.4913768 108.24812889 133.49761391 C111.13080803 133.50723293 114.01276259 133.53526625 116.89526367 133.56762695 C117.74690598 133.56619186 118.59854828 133.56475677 119.47599792 133.5632782 C125.51017529 133.65912111 128.83692944 134.89701474 133.25 139.1875 C135.49418247 142.79422182 136.20809524 145.76318096 136 150 C134.1434497 155.36336752 131.05501111 158.47249444 126 161 C124.2697124 161.10374144 122.53545916 161.14385121 120.80209351 161.15390015 C119.70023712 161.16250061 118.59838074 161.17110107 117.46313477 161.17996216 C116.24859619 161.18422211 115.03405762 161.18848206 113.78271484 161.19287109 C112.50780182 161.20104858 111.23288879 161.20922607 109.91934204 161.21765137 C105.68322873 161.24388148 101.44710551 161.25918422 97.2109375 161.2734375 C95.75186787 161.27879758 94.2927983 161.28417509 92.83372879 161.28956985 C86.76190993 161.31120383 80.69009374 161.32993828 74.61824608 161.34119225 C65.9229938 161.35741507 57.22818958 161.39054572 48.53310621 161.44759309 C42.41664327 161.48634971 36.30029985 161.50583191 30.18371737 161.51111281 C26.53246516 161.51475974 22.8816907 161.52670878 19.23057175 161.55921555 C15.15132992 161.5950116 11.0730446 161.5909109 6.99365234 161.58349609 C5.79125916 161.59990143 4.58886597 161.61630676 3.35003662 161.63320923 C-3.50072363 161.58227146 -8.94300242 160.97843095 -14 156 C-16.72826646 152.27349054 -17.37683195 149.67286998 -17.38768005 145.0861969 C-17.402537 143.30929977 -17.402537 143.30929977 -17.41769409 141.49650574 C-17.41319244 140.20545425 -17.4086908 138.91440277 -17.40405273 137.58422852 C-17.40975807 136.2040756 -17.41672297 134.8239274 -17.42485046 133.44378662 C-17.44277936 129.70199547 -17.44161404 125.96043887 -17.43590808 122.21861768 C-17.43281575 119.09237226 -17.43890918 115.96617187 -17.44494683 112.83993286 C-17.45898962 105.46348153 -17.45743291 98.08714603 -17.44604492 90.71069336 C-17.43456424 83.10626093 -17.44863887 75.50218121 -17.4754414 67.89779526 C-17.4976083 61.36344693 -17.50423355 54.82920923 -17.49836498 48.29482597 C-17.4949965 44.39452444 -17.49740302 40.49444899 -17.51461601 36.59417915 C-17.53009902 32.92586621 -17.52611519 29.25807514 -17.50731087 25.58978271 C-17.50187617 23.60618781 -17.51612885 21.62256939 -17.53100586 19.63902283 C-17.44123264 8.79940021 -17.44123264 8.79940021 -13 4 C-8.95588487 0.44608065 -5.35914912 -0.52540678 0 0 Z " fill="#040606" transform="translate(283,645)"/>
<path d="M0 0 C1.75274986 -0.01051392 1.75274986 -0.01051392 3.54090881 -0.02124023 C7.38754327 -0.03878583 11.23343671 -0.02720871 15.08007812 -0.01367188 C17.76233833 -0.01636776 20.44457639 -0.02024537 23.12683105 -0.02526855 C28.74202439 -0.03252926 34.35700673 -0.02299901 39.97216797 -0.00390625 C46.44797219 0.01785973 52.92327252 0.01080722 59.39906454 -0.01121187 C64.9764184 -0.02941117 70.55362129 -0.03190221 76.13099527 -0.0214572 C79.45452893 -0.01524696 82.77777621 -0.01590722 86.1013031 -0.02760315 C89.80876486 -0.03778764 93.51526584 -0.02223888 97.22265625 0 C98.85781944 -0.01214539 98.85781944 -0.01214539 100.52601624 -0.02453613 C106.87842089 0.04587884 111.84268361 0.78221764 117.11132812 4.51757812 C120.8409713 8.53411693 122.23814744 10.96869359 122.2272644 16.38053894 C122.22745071 17.4081131 122.22763702 18.43568726 122.22782898 19.49440002 C122.22273819 20.626353 122.2176474 21.75830597 122.21240234 22.92456055 C122.21082626 24.11329773 122.20925018 25.30203491 122.20762634 26.52679443 C122.20010877 30.4755838 122.18422606 34.42429661 122.16601562 38.37304688 C122.16022434 39.73308108 122.15445787 41.09311538 122.14871597 42.4531498 C122.12403197 48.11238727 122.09647283 53.77159817 122.06136894 59.43078136 C122.01118117 67.53583325 121.9777533 75.64054863 121.9680804 83.74575347 C121.95992333 89.44705932 121.93272952 95.14808442 121.89147389 100.84924585 C121.86733046 104.25277711 121.85139716 107.65587555 121.85573959 111.05949974 C121.85591892 114.86142733 121.82500328 118.66191604 121.78662109 122.46362305 C121.79367569 123.58545486 121.80073029 124.70728668 121.80799866 125.8631134 C121.69739598 132.74857113 120.80697017 136.3917481 116.11132812 141.51757812 C111.95174391 144.17509026 106.90888855 144.21140521 102.11132812 143.51757812 C98.16692028 141.47232961 95.31261289 139.38187127 93.11132812 135.51757812 C92.80731901 132.60362325 92.67378137 129.90005802 92.67895508 126.98535156 C92.6636676 125.69700409 92.6636676 125.69700409 92.64807129 124.38262939 C92.61790828 121.5473379 92.6086703 118.71238408 92.59960938 115.87695312 C92.58276514 113.90967686 92.56461525 111.94241138 92.54521179 109.97515869 C92.49767795 104.79996102 92.46789042 99.62480705 92.44177246 94.44946289 C92.41198407 89.16739266 92.36544781 83.88547306 92.3203125 78.60351562 C92.23424084 68.2416152 92.16691268 57.8796838 92.11132812 47.51757812 C91.19351563 48.44699219 90.27570313 49.37640625 89.33007812 50.33398438 C78.17429524 61.58726746 78.17429524 61.58726746 73.9921875 65.140625 C68.95100495 69.42532997 64.3514354 74.16675225 59.69462585 78.8591156 C57.98038227 80.58630488 56.2628751 82.31019132 54.54455566 84.0333252 C50.89730372 87.69191784 47.25401497 91.35444094 43.61132812 95.01757812 C39.38492182 99.26771182 35.1568379 103.51614874 30.92448425 107.76036072 C29.24529177 109.44596102 27.56917736 111.13457953 25.89318848 112.82336426 C20.99987506 117.73984438 16.07106693 122.54920711 10.79345703 127.05807495 C8.36652944 129.16380449 6.12315032 131.42873924 3.87695312 133.72460938 C2.97332031 134.64048828 2.0696875 135.55636719 1.13867188 136.5 C-0.26004707 137.9252769 -1.65872186 139.35060187 -3.05419922 140.77905273 C-4.42686914 142.18193566 -5.80612483 143.57836511 -7.18554688 144.97460938 C-7.9934668 145.79936768 -8.80138672 146.62412598 -9.63378906 147.47387695 C-12.87478865 150.41133987 -14.90409038 151.42641317 -19.26367188 151.83007812 C-24.77760083 151.35473942 -27.70784527 149.59572416 -31.76367188 145.89257812 C-34.06002555 142.24542817 -34.87714836 140.19667837 -34.62695312 135.94335938 C-32.2486793 128.12903108 -23.66038691 122.21305892 -17.63867188 117.11132812 C-15.78955864 115.61948978 -15.78955864 115.61948978 -14.88867188 113.51757812 C-14.22867188 113.51757812 -13.56867187 113.51757812 -12.88867188 113.51757812 C-12.66375061 112.95504837 -12.43882935 112.39251862 -12.20709229 111.8129425 C-10.499288 108.83966245 -8.3727858 107.05532737 -5.79394531 104.79174805 C2.30911138 97.54685864 9.92581846 89.82824312 17.59570312 82.13085938 C19.14774923 80.57694359 20.70001967 79.02325185 22.25250244 77.46977234 C26.29878013 73.41971272 30.34204337 69.36665716 34.38464355 65.31292725 C38.52606414 61.16119852 42.67038759 57.01236961 46.81445312 52.86328125 C54.91622308 44.75085045 63.01480507 36.63524531 71.11132812 28.51757812 C70.05976532 28.5139325 69.00820251 28.51028687 67.92477417 28.50653076 C58.00777727 28.46956634 48.09109048 28.41177775 38.17432976 28.33367538 C33.0761678 28.29419057 27.97817884 28.26200696 22.87988281 28.24658203 C17.95838016 28.23142215 13.03735305 28.19698828 8.11606216 28.1492691 C6.23987082 28.13444845 4.36361159 28.12653672 2.48736191 28.12569427 C-0.14386762 28.12332492 -2.77378264 28.09624856 -5.40478516 28.06347656 C-6.17802628 28.06850693 -6.9512674 28.07353729 -7.74794006 28.07872009 C-12.93594879 27.97894861 -15.87978719 26.77589351 -19.88867188 23.51757812 C-23.08536528 19.78810248 -23.36676115 16.40845642 -23.16210938 11.66210938 C-22.75775432 8.49081046 -22.05887747 6.8912405 -19.88867188 4.51757812 C-13.17995544 0.34318496 -7.79715548 -0.05791438 0 0 Z " fill="#060808" transform="translate(635.888671875,239.482421875)"/>
<path d="M0 0 C1.15628906 0.73476563 1.15628906 0.73476563 2.3359375 1.484375 C3.08617187 1.95359375 3.83640625 2.4228125 4.609375 2.90625 C13.98211732 9.38703093 20.24903829 18.57376526 22.7109375 29.734375 C24.98932334 45.07550635 21.13553943 58.94026162 12.3359375 71.484375 C0.63482068 86.06252805 -14.33821207 98.92656693 -29.6640625 109.484375 C-17.16382192 110.45811278 -4.68327001 110.78843197 7.84912109 111.03662109 C10.38389629 111.08804311 12.91848985 111.14526572 15.453125 111.203125 C16.23211151 111.21670044 17.01109802 111.23027588 17.81369019 111.2442627 C23.2227757 111.3712132 23.2227757 111.3712132 24.3359375 112.484375 C24.43493273 114.03393059 24.46673274 115.58791173 24.46875 117.140625 C24.47003906 118.08035156 24.47132813 119.02007813 24.47265625 119.98828125 C24.46878906 120.97699219 24.46492187 121.96570313 24.4609375 122.984375 C24.46480469 123.97308594 24.46867188 124.96179688 24.47265625 125.98046875 C24.47136719 126.92019531 24.47007812 127.85992188 24.46875 128.828125 C24.46705811 130.13040039 24.46705811 130.13040039 24.46533203 131.45898438 C24.3359375 133.484375 24.3359375 133.484375 23.3359375 134.484375 C15.48601891 135.67448035 7.52088986 135.63152765 -0.3984375 135.6171875 C-1.59349915 135.61814423 -2.78856079 135.61910095 -4.01983643 135.62008667 C-6.54105685 135.62076381 -9.06227907 135.6189422 -11.58349609 135.61474609 C-15.36169562 135.60944843 -19.13977315 135.61467748 -22.91796875 135.62109375 C-34.57624725 135.62472466 -46.21781389 135.52115253 -57.8671875 135.0390625 C-58.83468933 135.00032013 -59.80219116 134.96157776 -60.79901123 134.92166138 C-61.67905823 134.88032074 -62.55910522 134.8389801 -63.46582031 134.79638672 C-64.23275208 134.7605246 -64.99968384 134.72466248 -65.78985596 134.68771362 C-67.6640625 134.484375 -67.6640625 134.484375 -69.6640625 133.484375 C-71.71072081 127.34440006 -71.61064065 120.82832921 -70.6640625 114.484375 C-68.30797586 110.82818273 -65.25664256 108.85860182 -61.6640625 106.484375 C-59.83724829 105.02292363 -58.02504761 103.54305065 -56.2265625 102.046875 C-54.84210937 100.92345703 -54.84210937 100.92345703 -53.4296875 99.77734375 C-49.85926664 96.81712194 -46.42544695 93.723084 -42.99609375 90.6015625 C-40.90582361 88.70386331 -38.79420135 86.83704085 -36.6640625 84.984375 C-13.723689 66.71484178 -13.723689 66.71484178 -1.3515625 41.3046875 C-1.02761631 35.45340946 -2.2909218 30.31921 -5.6640625 25.484375 C-11.03517782 20.86169378 -16.44383963 19.15091977 -23.5078125 19.26953125 C-28.43169988 19.76013597 -32.31985705 21.080205 -35.765625 24.6796875 C-37.88385133 27.8090836 -38.80178855 30.53389493 -39.7890625 34.171875 C-41.46437451 40.28468701 -41.46437451 40.28468701 -43.6640625 42.484375 C-46.09423828 42.71142578 -46.09423828 42.71142578 -49.109375 42.6796875 C-50.18574219 42.67324219 -51.26210938 42.66679687 -52.37109375 42.66015625 C-54.06298828 42.63501953 -54.06298828 42.63501953 -55.7890625 42.609375 C-56.92472656 42.60035156 -58.06039062 42.59132813 -59.23046875 42.58203125 C-62.04187549 42.55840598 -64.85286548 42.52546513 -67.6640625 42.484375 C-69.56098748 31.88003746 -66.28972164 23.24958306 -60.67578125 14.24609375 C-55.18816891 6.71261428 -48.22216808 1.99469494 -39.6640625 -1.515625 C-38.38982422 -2.06283203 -38.38982422 -2.06283203 -37.08984375 -2.62109375 C-25.74650682 -5.58303692 -10.51971231 -5.49122813 0 0 Z " fill="#050706" transform="translate(672.6640625,440.515625)"/>
<path d="M0 0 C7.49317006 -0.02318288 14.98633639 -0.04094543 22.47953415 -0.05181217 C25.95902525 -0.05702798 29.43849179 -0.06410199 32.91796875 -0.07543945 C36.91927322 -0.08839545 40.92055193 -0.09323898 44.921875 -0.09765625 C46.16990906 -0.10281754 47.41794312 -0.10797882 48.70379639 -0.11329651 C50.44514862 -0.11340981 50.44514862 -0.11340981 52.22167969 -0.11352539 C53.75390167 -0.11685631 53.75390167 -0.11685631 55.31707764 -0.12025452 C57.7215259 -0.01248183 59.69930824 0.34068161 62 1 C63.36676632 1.13929356 64.7374567 1.24365301 66.109375 1.31640625 C67.24052734 1.37924805 67.24052734 1.37924805 68.39453125 1.44335938 C69.56048828 1.50233398 69.56048828 1.50233398 70.75 1.5625 C71.93916016 1.62727539 71.93916016 1.62727539 73.15234375 1.69335938 C75.10137815 1.79902991 77.05066748 1.89997966 79 2 C79 2.33 79 2.66 79 3 C60.19 3 41.38 3 22 3 C22 2.67 22 2.34 22 2 C14.74 1.67 7.48 1.34 0 1 C0 0.67 0 0.34 0 0 Z " fill="#141515" transform="translate(606,573)"/>
<path d="M0 0 C0.66 0.33 1.32 0.66 2 1 C-3.77046901 7.8771514 -10.06933674 14.18640629 -16.4375 20.5 C-17.4657298 21.52320139 -18.49372626 22.54663733 -19.52148438 23.5703125 C-22.01164338 26.04957999 -24.50492833 28.52567538 -27 31 C-27.66 30.34 -28.32 29.68 -29 29 C-19.43 19.43 -9.86 9.86 0 0 Z " fill="#0C0D0D" transform="translate(707,268)"/>
<path d="M0 0 C0.99 0.495 0.99 0.495 2 1 C1.01 1.495 1.01 1.495 0 2 C0 1.34 0 0.68 0 0 Z M-2 2 C-1.01 2.495 -1.01 2.495 0 3 C-0.99 3.495 -0.99 3.495 -2 4 C-2 3.34 -2 2.68 -2 2 Z M-8 9 C-7.34 9.66 -6.68 10.32 -6 11 C-6.99 11 -7.98 11 -9 11 C-8.67 10.34 -8.34 9.68 -8 9 Z M-16 16 C-15.34 16.33 -14.68 16.66 -14 17 C-15.98 18.98 -17.96 20.96 -20 23 C-20.66 22.67 -21.32 22.34 -22 22 C-20.02 20.02 -18.04 18.04 -16 16 Z " fill="#1B1B1B" transform="translate(393,663)"/>
<path d="M0 0 C0.66 0 1.32 0 2 0 C1.67 4.29 1.34 8.58 1 13 C0.01 13 -0.98 13 -2 13 C-1.85769192 11.58297487 -1.71099254 10.1663904 -1.5625 8.75 C-1.48128906 7.96109375 -1.40007812 7.1721875 -1.31640625 6.359375 C-1.02365007 4.17635361 -0.57935581 2.1226818 0 0 Z " fill="#E4E5E4" transform="translate(208,225)"/>
<path d="M0 0 C0.33 0.99 0.66 1.98 1 3 C0.34 3 -0.32 3 -1 3 C-0.34 6.63 0.32 10.26 1 14 C0.01 14 -0.98 14 -2 14 C-2.76173392 9.6835078 -3.16063604 6.25566547 -2 2 C-1.34 2 -0.68 2 0 2 C0 1.34 0 0.68 0 0 Z " fill="#0C0D0D" transform="translate(607,469)"/>
<path d="M0 0 C0.99 0.33 1.98 0.66 3 1 C1.68 2.32 0.36 3.64 -1 5 C-1 2 -1 2 0 0 Z M-3 5 C-2.34 5.66 -1.68 6.32 -1 7 C-2.98 7.99 -2.98 7.99 -5 9 C-4.34 7.68 -3.68 6.36 -3 5 Z " fill="#101111" transform="translate(667,493)"/>
<path d="M0 0 C0 3 0 3 -1.5 4.6875 C-1.995 5.120625 -2.49 5.55375 -3 6 C-3 3 -3 3 -1.5 1.3125 C-0.7575 0.6628125 -0.7575 0.6628125 0 0 Z M-6 5 C-5.34 5.33 -4.68 5.66 -4 6 C-5.32 7.32 -6.64 8.64 -8 10 C-8 7 -8 7 -6 5 Z " fill="#0E0E0E" transform="translate(647,516)"/>
</svg>
