<?xml version="1.0" standalone="no"?>
<!DOCTYPE svg PUBLIC "-//W3C//DTD SVG 20010904//EN"
 "http://www.w3.org/TR/2001/REC-SVG-20010904/DTD/svg10.dtd">
<svg version="1.0" xmlns="http://www.w3.org/2000/svg"
 width="100.000000pt" height="100.000000pt" viewBox="0 0 100.000000 100.000000"
 preserveAspectRatio="xMidYMid meet">
<metadata>
Created by potrace 1.10, written by Peter Selinger 2001-2011
</metadata>
<g transform="translate(0.000000,100.000000) scale(0.050000,-0.050000)"
fill="#000000" stroke="none">
<path d="M849 1903 c-342 -89 -550 -437 -469 -786 55 -240 323 -715 539 -957
l81 -90 81 90 c316 353 547 825 548 1120 1 415 -388 724 -780 623z m314 -475
c136 -79 154 -96 137 -128 -11 -21 -20 -105 -20 -189 l0 -151 -280 0 -280 0 0
151 c0 84 -9 168 -20 188 -17 32 2 50 135 129 186 110 141 110 328 0z"/>
<path d="M885 1367 l-85 -51 0 -138 0 -138 60 0 c59 0 60 2 60 100 l0 100 80
0 80 0 0 -100 c0 -98 1 -100 60 -100 l60 0 0 138 0 138 -89 52 c-108 64 -119
63 -226 -1z"/>
</g>
</svg>
