<?xml version="1.0" standalone="no"?>
<!DOCTYPE svg PUBLIC "-//W3C//DTD SVG 20010904//EN"
 "http://www.w3.org/TR/2001/REC-SVG-20010904/DTD/svg10.dtd">
<svg version="1.0" xmlns="http://www.w3.org/2000/svg"
 width="300.000000pt" height="170.000000pt" viewBox="0 0 300.000000 170.000000"
 preserveAspectRatio="xMidYMid meet">
<metadata>
Created by potrace 1.10, written by Peter Selinger 2001-2011
</metadata>
<g transform="translate(0.000000,170.000000) scale(0.100000,-0.100000)"
fill="#000000" stroke="none">
<path d="M1408 1306 c-109 -29 -178 -114 -178 -219 0 -34 -6 -57 -20 -74 -38
-48 -15 -138 38 -149 18 -4 39 -23 62 -57 46 -67 126 -117 187 -117 80 0 155
47 209 133 13 20 31 37 40 37 8 0 26 11 39 25 30 29 35 104 9 129 -9 10 -17
38 -19 69 -2 28 -11 71 -20 95 -44 109 -201 167 -347 128z m243 -125 l29 -29
0 -132 c0 -138 -7 -167 -54 -218 -27 -31 -88 -62 -120 -62 -60 0 -131 52 -167
122 -15 29 -19 58 -19 130 0 51 4 99 8 105 4 7 38 17 74 22 76 11 144 38 172
70 26 28 42 27 77 -8z"/>
<path d="M1204 649 c-108 -25 -197 -114 -210 -211 l-7 -48 518 0 518 0 -7 41
c-20 123 -121 208 -269 225 -50 6 -53 5 -75 -25 -12 -17 -39 -39 -60 -50 -93
-47 -188 -34 -260 36 -49 46 -67 50 -148 32z"/>
</g>
</svg>
